<svg width="22" height="19" viewBox="0 0 22 19" fill="none" xmlns="http://www.w3.org/2000/svg">
<path d="M21.384 8.69899L1.584 0.589978V0.598987C1.441 0.535987 1.276 0.5 1.1 0.5C0.495 0.5 0 0.905 0 1.4V8.6V10.4V17.6C0 18.095 0.495 18.5 1.1 18.5C1.276 18.5 1.441 18.455 1.584 18.401V18.41L21.384 10.31V10.301C21.747 10.157 22 9.86 22 9.5C22 9.14 21.747 8.85199 21.384 8.69899ZM2.2 13.1C2.2 11.606 3.674 10.4 5.5 10.4H9.9C10.505 10.4 11 9.995 11 9.5C11 9.005 10.505 8.6 9.9 8.6H5.5C3.674 8.6 2.2 7.394 2.2 5.9V2.858L18.436 9.5L2.2 16.142V13.1Z" fill="white"/>
</svg>
